v -0.5 0.5 -0.5
v -0.5 -0.5 -0.5
v 0.5 -0.5 -0.5
v 0.5 0.5 -0.5
v 0.5 0.5 0.5
v 0.5 -0.5 0.5
v -0.5 -0.5 0.5
v -0.5 0.5 0.5
v 0.5 0.5 -0.5
v 0.5 -0.5 -0.5
v 0.5 -0.5 0.5
v 0.5 0.5 0.5
v -0.5 0.5 0.5
v -0.5 -0.5 0.5
v -0.5 -0.5 -0.5
v -0.5 0.5 -0.5
v -0.5 -0.5 -0.5
v -0.5 -0.5 0.5
v 0.5 -0.5 0.5
v 0.5 -0.5 -0.5
v -0.5 0.5 0.5
v -0.5 0.5 -0.5
v 0.5 0.5 -0.5
v 0.5 0.5 0.5
vt 0.00000 1
vt 0.00000 0.96875
vt 0.03125 0.96875
vt 0.03125 1
vt 0.03125 1
vt 0.03125 0.96875
vt 0.0625 0.96875
vt 0.0625 1
vt 0.0625 1
vt 0.0625 0.96875
vt 0.09375 0.96875
vt 0.09375 1
vn 0 0 1
vn 1 0 0
vn 0 0 -1
vn -1 0 0
vn 0 1 0
vn 0 -1 0
f 1/5/3 4/8/3 2/6/3
f 4/8/3 3/7/3 2/6/3
f 5/5/1 8/8/1 6/6/1
f 8/8/1 7/7/1 6/6/1
f 9/5/2 12/8/2 10/6/2
f 12/8/2 11/7/2 10/6/2
f 13/5/4 16/8/4 14/6/4
f 16/8/4 15/7/4 14/6/4
f 17/9/6 20/12/6 18/10/6
f 20/12/6 19/11/6 18/10/6
f 21/1/5 24/4/5 22/2/5
f 24/4/5 23/3/5 22/2/5